<?xml version="1.0"?>
<!DOCTYPE svg PUBLIC "-//W3C//DTD SVG 1.1//EN" "http://www.w3.org/Graphics/SVG/1.1/DTD/svg11.dtd">
<svg xmlns="http://www.w3.org/2000/svg" xmlns:xlink="http://www.w3.org/1999/xlink" version="1.1" viewBox="0 0 144 144"
  width="12pc" height="12pc">
  <defs>
    <filter id="Shadow" filterUnits="userSpaceOnUse">
      <feGaussianBlur in="SourceAlpha" result="blur" stdDeviation="3.488" />
      <feOffset in="blur" result="offset" dx="0" dy="4" />
      <feFlood flood-color="black" flood-opacity=".75" result="flood" />
      <feComposite in="flood" in2="offset" operator="in" />
    </filter>
  </defs>
  <g stroke="none" stroke-opacity="1" stroke-dasharray="none" fill="none" fill-opacity="1">
    <g>
      <g>
        <use xlink:href="#id38_Graphic" filter="url(#Shadow)" />
        <use xlink:href="#id41_Graphic" filter="url(#Shadow)" />
      </g>
      <circle cx="72.106766" cy="71.893234" r="63.106873" fill="#ff8000" />
      <g id="id38_Graphic">
        <path
          d="M 504.0003 215.99997 C 540 215.99997 513.00012 260.99988 513.00012 260.99988 L 513.00012 278.999 C 513.00012 278.999 513.12122 283.52551 504.1213 283.52548 C 495.12137 283.52551 513.12122 283.52548 504.1213 283.52563 C 495.12158 283.52557 494.99982 278.999 494.99982 278.999 L 494.99982 260.99988 C 494.99982 260.99963 468.0002 215.99997 504.0003 215.99997 Z"
          fill="white" />
        <path
          d="M 504.0003 215.99997 C 540 215.99997 513.00012 260.99988 513.00012 260.99988 L 513.00012 278.999 C 513.00012 278.999 513.12122 283.52551 504.1213 283.52548 C 495.12137 283.52551 513.12122 283.52548 504.1213 283.52563 C 495.12158 283.52557 494.99982 278.999 494.99982 278.999 L 494.99982 260.99988 C 494.99982 260.99963 468.0002 215.99997 504.0003 215.99997 Z"
          stroke="black" stroke-linecap="round" stroke-linejoin="round" stroke-width="1" />
      </g>
      <g id="id41_Graphic">
        <path
          d="M 359.879 215.99973 C 384.66092 215.99973 381.7425 240.91196 379.48611 246.75395 C 377.2311 252.59476 368.87958 260.9996 368.87958 260.9996 L 368.87958 278.99896 C 368.87958 278.99896 368.99927 283.5252 359.99957 283.5252 C 350.99936 283.5252 368.99927 283.5252 359.99957 283.5252 C 351.00024 283.5252 350.87805 278.99896 350.87805 278.99896 L 350.87805 260.9996 C 350.87805 260.9996 341.8858 251.96756 339.94833 246.33893 C 338.00952 240.71297 335.09738 216.00002 359.879 215.99973 Z"
          fill="white" />
        <path
          d="M 359.879 215.99973 C 384.66092 215.99973 381.7425 240.91196 379.48611 246.75395 C 377.2311 252.59476 368.87958 260.9996 368.87958 260.9996 L 368.87958 278.99896 C 368.87958 278.99896 368.99927 283.5252 359.99957 283.5252 C 350.99936 283.5252 368.99927 283.5252 359.99957 283.5252 C 351.00024 283.5252 350.87805 278.99896 350.87805 278.99896 L 350.87805 260.9996 C 350.87805 260.9996 341.8858 251.96756 339.94833 246.33893 C 338.00952 240.71297 335.09738 216.00002 359.879 215.99973 Z"
          stroke="black" stroke-linecap="round" stroke-linejoin="round" stroke-width="1" />
      </g>
      <path
        d="M 605.70355 261.71097 L 628.40216 268.61133 L 609.64966 295.79712 L 649.99445 266.36902 L 628.55243 259.46799 L 656.9848 235.1432 L 630.79712 226.15515 L 648.73083 203.72777 L 610.0913 229.13657 L 634.9864 237.7471 L 605.70367 261.7107 Z"
        fill="white" />
      <path
        d="M 605.70355 261.71097 L 628.40216 268.61133 L 609.64966 295.79712 L 649.99445 266.36902 L 628.55243 259.46799 L 656.9848 235.1432 L 630.79712 226.15515 L 648.73083 203.72777 L 610.0913 229.13657 L 634.9864 237.7471 L 605.70367 261.7107 Z"
        stroke="black" stroke-linecap="round" stroke-linejoin="round" stroke-width="1" />
      <path
        d="M 48.72583 60.980927 L 72.789764 77.86969 L 47.569298 118.110916 L 92.386826 76.85485 L 71.547935 62.768696 L 96.64419 25.675598 Z"
        fill="white" />
    </g>
  </g>
</svg>
