<?xml version="1.0"?>
<!DOCTYPE svg PUBLIC "-//W3C//DTD SVG 1.1//EN" "http://www.w3.org/Graphics/SVG/1.1/DTD/svg11.dtd">
<svg xmlns="http://www.w3.org/2000/svg" xmlns:xlink="http://www.w3.org/1999/xlink" version="1.1" viewBox="0 0 144 144"
  width="12pc" height="12pc">
  <defs>
    <marker orient="auto" overflow="visible" markerUnits="strokeWidth" id="FilledArrow_Marker" viewBox="-1 -3 6 6"
      markerWidth="6" markerHeight="6" color="black">
      <g>
        <path d="M 3.7333333 0 L 0 -1.4 L 0 1.4 Z" fill="currentColor" stroke="currentColor" stroke-width="1" />
      </g>
    </marker>
    <marker orient="auto" overflow="visible" markerUnits="strokeWidth" id="FilledArrow_Marker_2" viewBox="-1 -3 6 6"
      markerWidth="6" markerHeight="6" color="black">
      <g>
        <path d="M 3.2 0 L 0 -1.20000005 L 0 1.20000005 Z" fill="currentColor" stroke="currentColor" stroke-width="1" />
      </g>
    </marker>
  </defs>
  <g stroke="none" stroke-opacity="1" stroke-dasharray="none" fill="none" fill-opacity="1">
    <g>
      <path
        d="M 376.945 248 L 419 248 C 430.04568 248 439 256.95432 439 268 L 439 270.64496 C 439 281.69064 430.04568 290.64496 419 290.64496 L 376.945 290.64496 C 365.89932 290.64496 356.945 281.69064 356.945 270.64496 C 356.945 270.64496 356.945 270.64496 356.945 270.64496 L 356.945 268 C 356.945 256.95432 365.89932 248 376.945 248 Z"
        fill="white" />
      <path
        d="M 376.945 248 L 419 248 C 430.04568 248 439 256.95432 439 268 L 439 270.64496 C 439 281.69064 430.04568 290.64496 419 290.64496 L 376.945 290.64496 C 365.89932 290.64496 356.945 281.69064 356.945 270.64496 C 356.945 270.64496 356.945 270.64496 356.945 270.64496 L 356.945 268 C 356.945 256.95432 365.89932 248 376.945 248 Z"
        stroke="black" stroke-linecap="round" stroke-linejoin="round" stroke-width="8" />
      <line x1="420.73065" y1="245.08394" x2="453.11655" y2="210.5914" marker-end="url(#FilledArrow_Marker)"
        stroke="black" stroke-linecap="round" stroke-linejoin="round" stroke-width="3" />
      <path
        d="M 472.5 180 L 495.60358 180 C 502.50714 180 508.10358 185.59644 508.10358 192.5 L 508.10358 192.5 C 508.10358 199.40356 502.50714 205 495.60358 205 L 472.5 205 C 465.59644 205 460 199.40356 460 192.5 C 460 192.5 460 192.5 460 192.5 L 460 192.5 C 460 185.59644 465.59644 180 472.5 180 Z"
        fill="white" />
      <path
        d="M 472.5 180 L 495.60358 180 C 502.50714 180 508.10358 185.59644 508.10358 192.5 L 508.10358 192.5 C 508.10358 199.40356 502.50714 205 495.60358 205 L 472.5 205 C 465.59644 205 460 199.40356 460 192.5 C 460 192.5 460 192.5 460 192.5 L 460 192.5 C 460 185.59644 465.59644 180 472.5 180 Z"
        stroke="black" stroke-linecap="round" stroke-linejoin="round" stroke-width="4" />
      <line x1="420.73065" y1="291.41608" x2="453.11655" y2="325.9086" marker-end="url(#FilledArrow_Marker)"
        stroke="black" stroke-linecap="round" stroke-linejoin="round" stroke-width="3" />
      <path
        d="M 472.50006 356.5 L 495.60364 356.5 C 502.5072 356.5 508.10364 350.90356 508.10364 344 L 508.10364 344 C 508.10364 337.09644 502.5072 331.5 495.60364 331.5 L 472.50006 331.5 C 465.5965 331.5 460.00006 337.09644 460.00006 344 L 460.00006 344 C 460.00006 350.90356 465.5965 356.5 472.50006 356.5 Z"
        fill="white" />
      <path
        d="M 472.50006 356.5 L 495.60364 356.5 C 502.5072 356.5 508.10364 350.90356 508.10364 344 L 508.10364 344 C 508.10364 337.09644 502.5072 331.5 495.60364 331.5 L 472.50006 331.5 C 465.5965 331.5 460.00006 337.09644 460.00006 344 L 460.00006 344 C 460.00006 350.90356 465.5965 356.5 472.50006 356.5 Z"
        stroke="black" stroke-linecap="round" stroke-linejoin="round" stroke-width="4" />
      <line x1="374.5" y1="290.64496" x2="342.1141" y2="325.13748" marker-end="url(#FilledArrow_Marker)" stroke="black"
        stroke-linecap="round" stroke-linejoin="round" stroke-width="3" />
      <path
        d="M 322.7306 355.72888 L 299.62701 355.72888 C 292.72345 355.72888 287.12701 350.13245 287.12701 343.22888 C 287.12701 343.22888 287.12701 343.22888 287.12701 343.22888 L 287.12701 343.22888 C 287.12701 336.32532 292.72345 330.72888 299.62701 330.72888 C 299.62701 330.72888 299.62701 330.72888 299.62701 330.72888 L 322.7306 330.72888 C 329.63416 330.72888 335.2306 336.32532 335.2306 343.22888 L 335.2306 343.22888 C 335.2306 350.13245 329.63416 355.72888 322.7306 355.72888 Z"
        fill="white" />
      <path
        d="M 322.7306 355.72888 L 299.62701 355.72888 C 292.72345 355.72888 287.12701 350.13245 287.12701 343.22888 C 287.12701 343.22888 287.12701 343.22888 287.12701 343.22888 L 287.12701 343.22888 C 287.12701 336.32532 292.72345 330.72888 299.62701 330.72888 C 299.62701 330.72888 299.62701 330.72888 299.62701 330.72888 L 322.7306 330.72888 C 329.63416 330.72888 335.2306 336.32532 335.2306 343.22888 L 335.2306 343.22888 C 335.2306 350.13245 329.63416 355.72888 322.7306 355.72888 Z"
        stroke="black" stroke-linecap="round" stroke-linejoin="round" stroke-width="4" />
      <line x1="374.5" y1="245.08392" x2="342.1141" y2="210.5914" marker-end="url(#FilledArrow_Marker)" stroke="black"
        stroke-linecap="round" stroke-linejoin="round" stroke-width="3" />
      <path
        d="M 322.7306 180 L 299.62701 180 C 292.72345 180 287.12701 185.59644 287.12701 192.5 L 287.12701 192.5 C 287.12701 199.40356 292.72345 205 299.62701 205 L 322.7306 205 C 329.63416 205 335.2306 199.40356 335.2306 192.5 L 335.2306 192.5 C 335.2306 185.59644 329.63416 180 322.7306 180 Z"
        fill="white" />
      <path
        d="M 322.7306 180 L 299.62701 180 C 292.72345 180 287.12701 185.59644 287.12701 192.5 L 287.12701 192.5 C 287.12701 199.40356 292.72345 205 299.62701 205 L 322.7306 205 C 329.63416 205 335.2306 199.40356 335.2306 192.5 L 335.2306 192.5 C 335.2306 185.59644 329.63416 180 322.7306 180 Z"
        stroke="black" stroke-linecap="round" stroke-linejoin="round" stroke-width="4" />
      <path
        d="M 60.365826 60.416458 L 84.3691 60.416458 C 91.541504 60.416458 97.35588 66.230835 97.35588 73.403236 L 97.35588 73.403236 C 97.35588 80.57564 91.541504 86.390015 84.3691 86.390015 L 60.365826 86.390015 C 53.193424 86.390015 47.379047 80.57564 47.379047 73.403236 C 47.379047 73.403236 47.379047 73.403236 47.379047 73.403236 L 47.379047 73.403236 C 47.379047 66.230835 53.193424 60.416458 60.365826 60.416458 Z"
        fill="#ff6" />
      <path
        d="M 60.365826 60.416458 L 84.3691 60.416458 C 91.541504 60.416458 97.35588 66.230835 97.35588 73.403236 L 97.35588 73.403236 C 97.35588 80.57564 91.541504 86.390015 84.3691 86.390015 L 60.365826 86.390015 C 53.193424 86.390015 47.379047 80.57564 47.379047 73.403236 C 47.379047 73.403236 47.379047 73.403236 47.379047 73.403236 L 47.379047 73.403236 C 47.379047 66.230835 53.193424 60.416458 60.365826 60.416458 Z"
        stroke="black" stroke-linecap="round" stroke-linejoin="round" stroke-width="5" />
      <line x1="86.27098" y1="58.59528" x2="99.64554" y2="44.35068" marker-end="url(#FilledArrow_Marker_2)" stroke="black"
        stroke-linecap="round" stroke-linejoin="round" stroke-width="4" />
      <path
        d="M 117.75945 19.000059 L 131.831024 19.000061 C 136.03574 19.000061 139.44434 22.408657 139.44434 26.613373 L 139.44434 26.613373 C 139.44434 30.818089 136.03574 34.226685 131.831024 34.226685 L 117.75945 34.226685 C 113.55473 34.226685 110.14614 30.818089 110.14614 26.613373 C 110.14614 26.613373 110.14614 26.613371 110.14614 26.613371 L 110.14614 26.613373 C 110.14614 22.408657 113.55473 19.000061 117.75945 19.000061 Z"
        fill="#008040" />
      <path
        d="M 117.75945 19.000059 L 131.831024 19.000061 C 136.03574 19.000061 139.44434 22.408657 139.44434 26.613373 L 139.44434 26.613373 C 139.44434 30.818089 136.03574 34.226685 131.831024 34.226685 L 117.75945 34.226685 C 113.55473 34.226685 110.14614 30.818089 110.14614 26.613373 C 110.14614 26.613373 110.14614 26.613371 110.14614 26.613371 L 110.14614 26.613373 C 110.14614 22.408657 113.55473 19.000061 117.75945 19.000061 Z"
        stroke="black" stroke-linecap="round" stroke-linejoin="round" stroke-width="3" />
      <line x1="86.228737" y1="86.859695" x2="99.645676" y2="101.149376" marker-end="url(#FilledArrow_Marker_2)"
        stroke="black" stroke-linecap="round" stroke-linejoin="round" stroke-width="4" />
      <path
        d="M 117.75976 126.500015 L 131.83133 126.500015 C 136.03604 126.500015 139.44464 123.091415 139.44464 118.8867 L 139.44464 118.8867 C 139.44464 114.681984 136.03604 111.27339 131.83133 111.27339 L 117.75976 111.27339 C 113.55504 111.27339 110.146446 114.681984 110.146446 118.8867 L 110.146446 118.8867 C 110.146446 123.09142 113.55504 126.500015 117.75976 126.500015 Z"
        fill="aqua" />
      <path
        d="M 117.75976 126.500015 L 131.83133 126.500015 C 136.03604 126.500015 139.44464 123.091415 139.44464 118.8867 L 139.44464 118.8867 C 139.44464 114.681984 136.03604 111.27339 131.83133 111.27339 L 117.75976 111.27339 C 113.55504 111.27339 110.146446 114.681984 110.146446 118.8867 L 110.146446 118.8867 C 110.146446 123.09142 113.55504 126.500015 117.75976 126.500015 Z"
        stroke="black" stroke-linecap="round" stroke-linejoin="round" stroke-width="3" />
      <line x1="58.071117" y1="86.38993" x2="44.654312" y2="100.679565" marker-end="url(#FilledArrow_Marker_2)"
        stroke="black" stroke-linecap="round" stroke-linejoin="round" stroke-width="4" />
      <path
        d="M 26.540154 126.03033 L 12.4685745 126.03033 C 8.263859 126.03033 4.8552628 122.621735 4.8552628 118.417015 C 4.8552628 118.417015 4.8552628 118.417015 4.8552628 118.417015 L 4.8552628 118.417015 C 4.8552618 114.212296 8.263857 110.803703 12.4685726 110.803703 C 12.4685736 110.803703 12.4685736 110.803703 12.4685745 110.803703 L 26.540154 110.803703 C 30.74487 110.803703 34.153465 114.212296 34.153465 118.417015 L 34.153465 118.417015 C 34.153465 122.621735 30.74487 126.03033 26.540154 126.03033 Z"
        fill="#ff8000" />
      <path
        d="M 26.540154 126.03033 L 12.4685745 126.03033 C 8.263859 126.03033 4.8552628 122.621735 4.8552628 118.417015 C 4.8552628 118.417015 4.8552628 118.417015 4.8552628 118.417015 L 4.8552628 118.417015 C 4.8552618 114.212296 8.263857 110.803703 12.4685726 110.803703 C 12.4685736 110.803703 12.4685736 110.803703 12.4685745 110.803703 L 26.540154 110.803703 C 30.74487 110.803703 34.153465 114.212296 34.153465 118.417015 L 34.153465 118.417015 C 34.153465 122.621735 30.74487 126.03033 26.540154 126.03033 Z"
        stroke="black" stroke-linecap="round" stroke-linejoin="round" stroke-width="3" />
      <line x1="58.071117" y1="58.640305" x2="44.654308" y2="44.350662" marker-end="url(#FilledArrow_Marker_2)"
        stroke="black" stroke-linecap="round" stroke-linejoin="round" stroke-width="4" />
      <path
        d="M 26.540154 18.999937 L 12.4685755 18.999939 C 8.263859 18.999939 4.8552628 22.408535 4.8552628 26.61325 L 4.8552628 26.61325 C 4.8552628 30.817966 8.263859 34.226562 12.4685755 34.226562 L 26.540154 34.226562 C 30.74487 34.226562 34.153465 30.817968 34.153465 26.613253 L 34.153465 26.613249 C 34.153465 22.408533 30.74487 18.999935 26.540154 18.999935 Z"
        fill="#66f" />
      <path
        d="M 26.540154 18.999937 L 12.4685755 18.999939 C 8.263859 18.999939 4.8552628 22.408535 4.8552628 26.61325 L 4.8552628 26.61325 C 4.8552628 30.817966 8.263859 34.226562 12.4685755 34.226562 L 26.540154 34.226562 C 30.74487 34.226562 34.153465 30.817968 34.153465 26.613253 L 34.153465 26.613249 C 34.153465 22.408533 30.74487 18.999935 26.540154 18.999935 Z"
        stroke="black" stroke-linecap="round" stroke-linejoin="round" stroke-width="3" />
    </g>
  </g>
</svg>
