<?xml version="1.0"?>
<!DOCTYPE svg PUBLIC "-//W3C//DTD SVG 1.1//EN" "http://www.w3.org/Graphics/SVG/1.1/DTD/svg11.dtd">
<svg xmlns="http://www.w3.org/2000/svg" xmlns:xlink="http://www.w3.org/1999/xlink" version="1.1" viewBox="0 0 144 144"
  width="12pc" height="12pc">
  <defs></defs>
  <g stroke="none" stroke-opacity="1" stroke-dasharray="none" fill="none" fill-opacity="1">
    <g>
      <circle cx="72.106766" cy="71.893234" r="63.106873" fill="#008040" />
      <path
        d="M 368.7189 193.93979 C 378.40063 193.93979 385.27802 201.90088 385.27802 210.18048 C 385.27802 218.45992 376.99911 227.05875 376.99911 227.05875 C 376.99911 227.05875 388.85886 230.63721 392.92337 245.4476 C 396.98676 260.25742 401.32889 272.47388 401.0029 273.51038 C 400.677 274.54675 386.44995 281.51483 369.89258 281.51483 C 353.33261 281.51462 338.3316 274.68915 337.87668 273.85718 C 337.41992 273.02588 341.7333 261.09708 345.0528 246.80673 C 348.37463 232.51855 360.44135 227.05875 360.44135 227.05875 C 360.44135 227.05875 352.16092 218.7792 352.16092 210.49921 C 352.16092 202.21909 359.03961 193.94028 368.7189 193.93979 Z"
        fill="white" />
      <path
        d="M 368.7189 193.93979 C 378.40063 193.93979 385.27802 201.90088 385.27802 210.18048 C 385.27802 218.45992 376.99911 227.05875 376.99911 227.05875 C 376.99911 227.05875 388.85886 230.63721 392.92337 245.4476 C 396.98676 260.25742 401.32889 272.47388 401.0029 273.51038 C 400.677 274.54675 386.44995 281.51483 369.89258 281.51483 C 353.33261 281.51462 338.3316 274.68915 337.87668 273.85718 C 337.41992 273.02588 341.7333 261.09708 345.0528 246.80673 C 348.37463 232.51855 360.44135 227.05875 360.44135 227.05875 C 360.44135 227.05875 352.16092 218.7792 352.16092 210.49921 C 352.16092 202.21909 359.03961 193.94028 368.7189 193.93979 Z"
        stroke="black" stroke-linecap="round" stroke-linejoin="round" stroke-width="1" />
      <path
        d="M 71.393974 28.105713 C 81.075714 28.105713 87.95307 36.066803 87.95307 44.346405 C 87.95307 52.625847 79.67417 61.224678 79.67417 61.224678 C 79.67417 61.224678 91.53393 64.80313 95.59844 79.61352 C 99.66181 94.42334 104.00396 106.6398 103.67798 107.6763 C 103.35208 108.71268 89.125 115.680756 72.56765 115.680756 C 56.00768 115.68054 41.006683 108.85507 40.551735 108.02311 C 40.094975 107.19181 44.408386 95.26301 47.727875 80.97265 C 51.049713 66.684486 63.116398 61.224678 63.116398 61.224678 C 63.116398 61.224678 54.83599 52.945137 54.83599 44.66513 C 54.83599 36.385006 61.714676 28.106194 71.393974 28.105713 Z"
        fill="white" />
    </g>
  </g>
</svg>
