<?xml version="1.0"?>
<!DOCTYPE svg PUBLIC "-//W3C//DTD SVG 1.1//EN" "http://www.w3.org/Graphics/SVG/1.1/DTD/svg11.dtd">
<svg xmlns="http://www.w3.org/2000/svg" xmlns:xlink="http://www.w3.org/1999/xlink" version="1.1" viewBox="0 0 144 144"
  width="12pc" height="12pc">
  <defs>
    <filter id="Shadow" filterUnits="userSpaceOnUse">
      <feGaussianBlur in="SourceAlpha" result="blur" stdDeviation="3.488" />
      <feOffset in="blur" result="offset" dx="0" dy="4" />
      <feFlood flood-color="black" flood-opacity=".75" result="flood" />
      <feComposite in="flood" in2="offset" operator="in" />
    </filter>
  </defs>
  <g stroke="none" stroke-opacity="1" stroke-dasharray="none" fill="none" fill-opacity="1">
    <g>
      <g>
        <use xlink:href="#id49_Graphic" filter="url(#Shadow)" />
        <use xlink:href="#id50_Graphic" filter="url(#Shadow)" />
        <use xlink:href="#id56_Graphic" filter="url(#Shadow)" />
      </g>
      <circle cx="72.106766" cy="71.893234" r="63.106873" fill="#8050ff" />
      <g id="id49_Graphic">
        <path
          d="M 216.00006 216.00044 L 278.99979 216.00044 L 296.74112 229.67056 L 278.99979 243 L 259.39249 243.09698 C 259.39249 243.09698 263.06927 330.43204 261.98508 332.92584 C 260.90134 335.41995 242.39833 334.8164 241.13959 332.76266 C 239.88058 330.70905 243.84752 243.43608 243.84752 243.43608 L 216.00006 243 Z"
          fill="white" />
        <path
          d="M 216.00006 216.00044 L 278.99979 216.00044 L 296.74112 229.67056 L 278.99979 243 L 259.39249 243.09698 C 259.39249 243.09698 263.06927 330.43204 261.98508 332.92584 C 260.90134 335.41995 242.39833 334.8164 241.13959 332.76266 C 239.88058 330.70905 243.84752 243.43608 243.84752 243.43608 L 216.00006 243 Z"
          stroke="black" stroke-linecap="round" stroke-linejoin="round" stroke-width="1" />
      </g>
      <g id="id50_Graphic">
        <path
          d="M 360.79105 224.30176 L 374.30472 224.15039 L 375.31738 229.3076 C 375.31738 229.3076 383.13394 226.33705 386.2754 225.48926 C 389.41797 224.64062 407.23532 224.98508 414.31448 227.04071 C 421.39032 229.09354 441.58615 244.66084 441.58572 244.66084 C 441.58646 244.66084 415.11337 235.40744 411.6015 236.30927 C 408.08878 237.21065 402.70285 244.3011 402.70285 244.3011 C 402.70285 244.3011 406.39102 330.48523 405.3035 332.94696 C 404.21613 335.40839 385.6536 334.81244 384.3912 332.78589 C 383.1278 330.7591 387.10785 244.63553 387.10785 244.63553 L 382.70001 238.43909 L 375.1395 238.71083 L 372.8877 243.11705 L 360.54288 243.58272 Z"
          fill="white" />
        <path
          d="M 360.79105 224.30176 L 374.30472 224.15039 L 375.31738 229.3076 C 375.31738 229.3076 383.13394 226.33705 386.2754 225.48926 C 389.41797 224.64062 407.23532 224.98508 414.31448 227.04071 C 421.39032 229.09354 441.58615 244.66084 441.58572 244.66084 C 441.58646 244.66084 415.11337 235.40744 411.6015 236.30927 C 408.08878 237.21065 402.70285 244.3011 402.70285 244.3011 C 402.70285 244.3011 406.39102 330.48523 405.3035 332.94696 C 404.21613 335.40839 385.6536 334.81244 384.3912 332.78589 C 383.1278 330.7591 387.10785 244.63553 387.10785 244.63553 L 382.70001 238.43909 L 375.1395 238.71083 L 372.8877 243.11705 L 360.54288 243.58272 Z"
          stroke="black" stroke-linecap="round" stroke-linejoin="round" stroke-width="1" />
      </g>
      <path
        d="M 32.05246 48.952553 L 40.978294 44.277958 L 43.396603 47.361107 C 43.396603 47.361107 47.583656 42.742062 49.383537 41.115582 C 51.183903 39.488148 63.136482 33.686222 68.534927 32.655655 C 73.930206 31.62434 92.615364 35.12984 92.61508 35.129986 C 92.61557 35.129738 71.897552 37.943226 69.86988 39.730991 C 67.84149 41.518753 66.66359 48.05191 66.66359 48.05191 C 66.66359 48.05191 98.284843 104.0553 98.395645 106.05873 C 98.50644 108.06189 85.973717 113.948975 84.44918 113.03003 C 82.92389 112.11127 56.41709 53.552593 56.41709 53.552593 L 51.39164 50.928276 L 46.461197 53.66784 L 46.456734 57.357052 L 38.413738 61.844818 Z"
        fill="white" />
      <g id="id56_Graphic">
        <path
          d="M 574.32373 226.28618 L 624.7052 226.68556 L 653.31256 237.4785 L 625.26202 246.78217 L 617.3918 247.17177 C 617.3918 247.17177 621.06793 334.50656 619.98425 336.99988 C 618.90015 339.49435 600.3979 338.89075 599.13922 336.83698 C 597.88013 334.78308 601.84723 247.5109 601.84723 247.5109 L 573.9989 247.0745 Z"
          fill="white" />
        <path
          d="M 574.32373 226.28618 L 624.7052 226.68556 L 653.31256 237.4785 L 625.26202 246.78217 L 617.3918 247.17177 C 617.3918 247.17177 621.06793 334.50656 619.98425 336.99988 C 618.90015 339.49435 600.3979 338.89075 599.13922 336.83698 C 597.88013 334.78308 601.84723 247.5109 601.84723 247.5109 L 573.9989 247.0745 Z"
          stroke="black" stroke-linecap="round" stroke-linejoin="round" stroke-width="1" />
      </g>
    </g>
  </g>
</svg>
