<?xml version="1.0"?>
<!DOCTYPE svg PUBLIC "-//W3C//DTD SVG 1.1//EN" "http://www.w3.org/Graphics/SVG/1.1/DTD/svg11.dtd">
<svg xmlns="http://www.w3.org/2000/svg" xmlns:xlink="http://www.w3.org/1999/xlink" version="1.1" viewBox="0 0 144 144"
  width="12pc" height="12pc">
  <g stroke="none" stroke-opacity="1" stroke-dasharray="none" fill="none" fill-opacity="1">
    <g>
      <path d="M 33.896538 84.555054 L 33.896538 93.555054 L 33.949871 100.15622 L 33.949871 109.15622" stroke="black"
        stroke-linecap="round" stroke-linejoin="round" stroke-width="3" />
      <path
        d="M 33.931267 97.853355 L 42.931267 97.853355 L 124.84663 97.85337 L 124.96831 100.15631 L 124.96831 109.15631"
        stroke="black" stroke-linecap="round" stroke-linejoin="round" stroke-width="3" />
      <path d="M 79.62468 109.156326 L 79.62468 100.156326 L 79.756943 106.85336 L 79.756943 97.853363" stroke="black"
        stroke-linecap="round" stroke-linejoin="round" stroke-width="3" />
      <path d="M 34.113102 33.98027 L 34.113102 42.98027 L 33.896542 49.581497 L 33.896542 58.581497" stroke="black"
        stroke-linecap="round" stroke-linejoin="round" stroke-width="3" />
      <path
        d="M 34.063938 44.478874 L 43.063938 44.478874 L 125.15337 44.478378 L 125.22658 42.980286 L 125.22658 33.980286"
        stroke="black" stroke-linecap="round" stroke-linejoin="round" stroke-width="3" />
      <path d="M 79.75363 33.980324 L 79.75363 42.980324 L 79.767334 35.478653 L 79.767334 44.478653" stroke="black"
        stroke-linecap="round" stroke-linejoin="round" stroke-width="3" />
      <path
        d="M 16.897224 58.581497 L 40.900497 58.581497 C 48.0729 58.581497 53.887276 64.395874 53.887276 71.568275 L 53.887276 71.568275 C 53.887276 78.740677 48.0729 84.555054 40.900497 84.555054 L 16.897224 84.555054 C 9.724825 84.555054 3.9104462 78.740677 3.9104462 71.568275 C 3.9104462 71.568275 3.9104462 71.568275 3.9104462 71.568275 L 3.9104462 71.568275 C 3.9104462 64.395874 9.724825 58.581497 16.897224 58.581497 Z"
        fill="#ff8000" />
      <path
        d="M 16.897224 58.581497 L 40.900497 58.581497 C 48.0729 58.581497 53.887276 64.395874 53.887276 71.568275 L 53.887276 71.568275 C 53.887276 78.740677 48.0729 84.555054 40.900497 84.555054 L 16.897224 84.555054 C 9.724825 84.555054 3.9104462 78.740677 3.9104462 71.568275 C 3.9104462 71.568275 3.9104462 71.568275 3.9104462 71.568275 L 3.9104462 71.568275 C 3.9104462 64.395874 9.724825 58.581497 16.897224 58.581497 Z"
        stroke="black" stroke-linecap="round" stroke-linejoin="round" stroke-width="5" />
      <path
        d="M 26.933834 110.65623 L 41.005413 110.65623 C 45.21013 110.65623 48.618725 114.06482 48.618725 118.26954 L 48.618725 118.26954 C 48.618725 122.47426 45.21013 125.88285 41.005413 125.88285 L 26.933834 125.88285 C 22.729118 125.88285 19.320522 122.47426 19.320522 118.26954 C 19.320522 118.26954 19.320522 118.26954 19.320522 118.26954 L 19.320522 118.26954 C 19.320522 114.06482 22.729118 110.65623 26.933834 110.65623 Z"
        fill="#008040" />
      <path
        d="M 26.933834 110.65623 L 41.005413 110.65623 C 45.21013 110.65623 48.618725 114.06482 48.618725 118.26954 L 48.618725 118.26954 C 48.618725 122.47426 45.21013 125.88285 41.005413 125.88285 L 26.933834 125.88285 C 22.729118 125.88285 19.320522 122.47426 19.320522 118.26954 C 19.320522 118.26954 19.320522 118.26954 19.320522 118.26954 L 19.320522 118.26954 C 19.320522 114.06482 22.729118 110.65623 26.933834 110.65623 Z"
        stroke="black" stroke-linecap="round" stroke-linejoin="round" stroke-width="3" />
      <path
        d="M 72.48224 125.88285 L 86.55382 125.88285 C 90.75853 125.88285 94.16713 122.47425 94.16713 118.26954 L 94.16713 118.26954 C 94.16713 114.06482 90.758537 110.65623 86.55382 110.65623 L 72.48224 110.65623 C 68.27752 110.65623 64.868927 114.06482 64.868927 118.26954 L 64.868927 118.26954 C 64.868927 122.47426 68.27752 125.88285 72.48224 125.88285 Z"
        fill="aqua" />
      <path
        d="M 72.48224 125.88285 L 86.55382 125.88285 C 90.75853 125.88285 94.16713 122.47425 94.16713 118.26954 L 94.16713 118.26954 C 94.16713 114.06482 90.758537 110.65623 86.55382 110.65623 L 72.48224 110.65623 C 68.27752 110.65623 64.868927 114.06482 64.868927 118.26954 L 64.868927 118.26954 C 64.868927 122.47426 68.27752 125.88285 72.48224 125.88285 Z"
        stroke="black" stroke-linecap="round" stroke-linejoin="round" stroke-width="3" />
      <path
        d="M 132.1022 110.65623 L 118.030624 110.65623 C 113.825905 110.65623 110.41731 114.06482 110.41731 118.26954 L 110.41731 118.26954 C 110.41731 122.47426 113.825905 125.88285 118.030624 125.88285 L 132.1022 125.88285 C 136.306915 125.88285 139.715515 122.47425 139.715515 118.26954 L 139.715515 118.26954 C 139.715515 114.06482 136.306915 110.65623 132.1022 110.65623 Z"
        fill="#66f" />
      <path
        d="M 132.1022 110.65623 L 118.030624 110.65623 C 113.825905 110.65623 110.41731 114.06482 110.41731 118.26954 L 110.41731 118.26954 C 110.41731 122.47426 113.825905 125.88285 118.030624 125.88285 L 132.1022 125.88285 C 136.306915 125.88285 139.715515 122.47425 139.715515 118.26954 L 139.715515 118.26954 C 139.715515 114.06482 136.306915 110.65623 132.1022 110.65623 Z"
        stroke="black" stroke-linecap="round" stroke-linejoin="round" stroke-width="3" />
      <path
        d="M 27.157537 17.253696 L 41.22911 17.253696 C 45.433826 17.253696 48.842422 20.662292 48.842422 24.86701 L 48.842422 24.86701 C 48.842422 29.071728 45.433826 32.480324 41.22911 32.480324 L 27.157537 32.480324 C 22.95282 32.480324 19.544224 29.071728 19.544224 24.86701 C 19.544224 24.86701 19.544224 24.867008 19.544224 24.867008 L 19.544224 24.86701 C 19.544224 20.662292 22.95282 17.253696 27.157537 17.253696 Z"
        fill="#008040" />
      <path
        d="M 27.157537 17.253696 L 41.22911 17.253696 C 45.433826 17.253696 48.842422 20.662292 48.842422 24.86701 L 48.842422 24.86701 C 48.842422 29.071728 45.433826 32.480324 41.22911 32.480324 L 27.157537 32.480324 C 22.95282 32.480324 19.544224 29.071728 19.544224 24.86701 C 19.544224 24.86701 19.544224 24.867008 19.544224 24.867008 L 19.544224 24.86701 C 19.544224 20.662292 22.95282 17.253696 27.157537 17.253696 Z"
        stroke="black" stroke-linecap="round" stroke-linejoin="round" stroke-width="3" />
      <path
        d="M 72.70594 32.480324 L 86.77752 32.480324 C 90.98224 32.480324 94.39083 29.071728 94.39083 24.867012 L 94.39083 24.86701 C 94.39083 20.662292 90.98224 17.253696 86.77752 17.253696 L 72.70594 17.253696 C 68.50122 17.253696 65.09263 20.662292 65.09263 24.86701 L 65.09263 24.86701 C 65.09263 29.071728 68.50122 32.480324 72.70594 32.480324 Z"
        fill="aqua" />
      <path
        d="M 72.70594 32.480324 L 86.77752 32.480324 C 90.98224 32.480324 94.39083 29.071728 94.39083 24.867012 L 94.39083 24.86701 C 94.39083 20.662292 90.98224 17.253696 86.77752 17.253696 L 72.70594 17.253696 C 68.50122 17.253696 65.09263 20.662292 65.09263 24.86701 L 65.09263 24.86701 C 65.09263 29.071728 68.50122 32.480324 72.70594 32.480324 Z"
        stroke="black" stroke-linecap="round" stroke-linejoin="round" stroke-width="3" />
      <path
        d="M 132.32593 17.253696 L 118.25434 17.253696 C 114.04962 17.253696 110.64103 20.662292 110.64103 24.86701 L 110.64103 24.86701 C 110.64103 29.071728 114.04962 32.480324 118.25434 32.480324 L 132.32593 32.480324 C 136.53064 32.480324 139.93924 29.071728 139.93924 24.867012 L 139.93924 24.86701 C 139.93924 20.662292 136.53064 17.253696 132.32593 17.253696 Z"
        fill="#66f" />
      <path
        d="M 132.32593 17.253696 L 118.25434 17.253696 C 114.04962 17.253696 110.64103 20.662292 110.64103 24.86701 L 110.64103 24.86701 C 110.64103 29.071728 114.04962 32.480324 118.25434 32.480324 L 132.32593 32.480324 C 136.53064 32.480324 139.93924 29.071728 139.93924 24.867012 L 139.93924 24.86701 C 139.93924 20.662292 136.53064 17.253696 132.32593 17.253696 Z"
        stroke="black" stroke-linecap="round" stroke-linejoin="round" stroke-width="3" />
    </g>
  </g>
</svg>
